<svg xmlns="http://www.w3.org/2000/svg" data-name="Layer 1" viewBox="0 0 24 24"><path d="M24 13v-2l-3.18-.79a7.18 7.18 0 0 0-.29-1.06l2.36-2.28-1-1.74-3.16.87a9.32 9.32 0 0 0-.73-.73l.91-3.16-1.74-1-2.32 2.36a7.18 7.18 0 0 0-1.06-.29L13 0h-2l-.79 3.18a7.18 7.18 0 0 0-1.06.29L6.87 1.11l-1.74 1L6 5.27a9.32 9.32 0 0 0-.73.73l-3.16-.87-1 1.74 2.36 2.28a7.18 7.18 0 0 0-.29 1.06L0 11v2l3.18.79a7.18 7.18 0 0 0 .29 1.06l-2.36 2.28 1 1.74L5.27 18a9.32 9.32 0 0 0 .77.77l-.91 3.16 1.74 1 2.28-2.36a7.18 7.18 0 0 0 1.06.29L11 24h2l.79-3.18a7.18 7.18 0 0 0 1.06-.29l2.28 2.36 1.74-1-.87-3.16a9.32 9.32 0 0 0 .77-.77l3.16.91 1-1.74-2.36-2.28a7.18 7.18 0 0 0 .29-1.06Zm-5-1a7 7 0 1 1-7-7 7 7 0 0 1 7 7Z"/></svg>